<?xml version="1.0" encoding="UTF-8"?>
<svg xmlns="http://www.w3.org/2000/svg" xmlns:xlink="http://www.w3.org/1999/xlink"
     width="2200.0" height="2200.0" viewBox="0 -2200.0 2200.0 2200.0" style="background-color:white">
<defs>
</defs>
<path stroke="black" d="M250,-1100.0 L1950.0,-1100.0" />
<circle r="9" stroke-width="2.3512492185517644" cy="-1100.0" stroke="black" fill="white" cx="250.0" />
<text x="250.0" transform="translate(0,4.5)" font-size="9.0" y="-1102.0" text-anchor="middle" fill="black">1</text>
<circle r="9" stroke-width="2.3512492185517644" cy="-1100.0" stroke="black" fill="white" cx="289.5348837209302" />
<text x="289.5348837209302" transform="translate(0,4.5)" font-size="9.0" y="-1102.0" text-anchor="middle" fill="black">2</text>
<circle r="9" stroke-width="2.3512492185517644" cy="-1100.0" stroke="black" fill="white" cx="329.06976744186045" />
<text x="329.06976744186045" transform="translate(0,4.5)" font-size="9.0" y="-1102.0" text-anchor="middle" fill="black">3</text>
<circle r="9" stroke-width="2.3512492185517644" cy="-1100.0" stroke="black" fill="white" cx="368.6046511627907" />
<text x="368.6046511627907" transform="translate(0,4.5)" font-size="9.0" y="-1102.0" text-anchor="middle" fill="black">4</text>
<circle r="9" stroke-width="2.3512492185517644" cy="-1100.0" stroke="black" fill="white" cx="408.1395348837209" />
<text x="408.1395348837209" transform="translate(0,4.5)" font-size="9.0" y="-1102.0" text-anchor="middle" fill="black">5</text>
<circle r="9" stroke-width="2.3512492185517644" cy="-1100.0" stroke="black" fill="white" cx="447.6744186046511" />
<text x="447.6744186046511" transform="translate(0,4.5)" font-size="9.0" y="-1102.0" text-anchor="middle" fill="black">6</text>
<circle r="9" stroke-width="2.3512492185517644" cy="-1100.0" stroke="black" fill="white" cx="487.2093023255814" />
<text x="487.2093023255814" transform="translate(0,4.5)" font-size="9.0" y="-1102.0" text-anchor="middle" fill="black">7</text>
<circle r="9" stroke-width="2.3512492185517644" cy="-1100.0" stroke="black" fill="white" cx="526.7441860465117" />
<text x="526.7441860465117" transform="translate(0,4.5)" font-size="9.0" y="-1102.0" text-anchor="middle" fill="black">8</text>
<circle r="9" stroke-width="2.3512492185517644" cy="-1100.0" stroke="black" fill="white" cx="566.2790697674418" />
<text x="566.2790697674418" transform="translate(0,4.5)" font-size="9.0" y="-1102.0" text-anchor="middle" fill="black">9</text>
<circle r="9" stroke-width="2.3512492185517644" cy="-1100.0" stroke="black" fill="white" cx="605.8139534883721" />
<text x="605.8139534883721" transform="translate(0,4.5)" font-size="9.0" y="-1102.0" text-anchor="middle" fill="black">10</text>
<circle r="9" stroke-width="2.3512492185517644" cy="-1100.0" stroke="black" fill="white" cx="645.3488372093022" />
<text x="645.3488372093022" transform="translate(0,4.5)" font-size="9.0" y="-1102.0" text-anchor="middle" fill="black">11</text>
<circle r="9" stroke-width="2.3512492185517644" cy="-1100.0" stroke="black" fill="white" cx="684.8837209302326" />
<text x="684.8837209302326" transform="translate(0,4.5)" font-size="9.0" y="-1102.0" text-anchor="middle" fill="black">12</text>
<circle r="9" stroke-width="2.3512492185517644" cy="-1100.0" stroke="black" fill="white" cx="724.4186046511628" />
<text x="724.4186046511628" transform="translate(0,4.5)" font-size="9.0" y="-1102.0" text-anchor="middle" fill="black">13</text>
<circle r="9" stroke-width="2.3512492185517644" cy="-1100.0" stroke="black" fill="white" cx="763.953488372093" />
<text x="763.953488372093" transform="translate(0,4.5)" font-size="9.0" y="-1102.0" text-anchor="middle" fill="black">14</text>
<circle r="9" stroke-width="2.3512492185517644" cy="-1100.0" stroke="black" fill="white" cx="803.4883720930233" />
<text x="803.4883720930233" transform="translate(0,4.5)" font-size="9.0" y="-1102.0" text-anchor="middle" fill="black">15</text>
<circle r="9" stroke-width="2.3512492185517644" cy="-1100.0" stroke="black" fill="white" cx="843.0232558139535" />
<text x="843.0232558139535" transform="translate(0,4.5)" font-size="9.0" y="-1102.0" text-anchor="middle" fill="black">16</text>
<circle r="9" stroke-width="2.3512492185517644" cy="-1100.0" stroke="black" fill="white" cx="882.5581395348837" />
<text x="882.5581395348837" transform="translate(0,4.5)" font-size="9.0" y="-1102.0" text-anchor="middle" fill="black">17</text>
<circle r="9" stroke-width="2.3512492185517644" cy="-1100.0" stroke="black" fill="white" cx="922.0930232558139" />
<text x="922.0930232558139" transform="translate(0,4.5)" font-size="9.0" y="-1102.0" text-anchor="middle" fill="black">18</text>
<circle r="9" stroke-width="2.3512492185517644" cy="-1100.0" stroke="black" fill="white" cx="961.6279069767442" />
<text x="961.6279069767442" transform="translate(0,4.5)" font-size="9.0" y="-1102.0" text-anchor="middle" fill="black">19</text>
<circle r="9" stroke-width="2.3512492185517644" cy="-1100.0" stroke="black" fill="white" cx="1001.1627906976744" />
<text x="1001.1627906976744" transform="translate(0,4.5)" font-size="9.0" y="-1102.0" text-anchor="middle" fill="black">20</text>
<circle r="9" stroke-width="2.3512492185517644" cy="-1100.0" stroke="black" fill="white" cx="1040.6976744186045" />
<text x="1040.6976744186045" transform="translate(0,4.5)" font-size="9.0" y="-1102.0" text-anchor="middle" fill="black">21</text>
<circle r="9" stroke-width="2.3512492185517644" cy="-1100.0" stroke="black" fill="white" cx="1080.2325581395348" />
<text x="1080.2325581395348" transform="translate(0,4.5)" font-size="9.0" y="-1102.0" text-anchor="middle" fill="black">22</text>
<circle r="9" stroke-width="2.3512492185517644" cy="-1100.0" stroke="black" fill="white" cx="1119.7674418604652" />
<text x="1119.7674418604652" transform="translate(0,4.5)" font-size="9.0" y="-1102.0" text-anchor="middle" fill="black">23</text>
<circle r="9" stroke-width="2.3512492185517644" cy="-1100.0" stroke="black" fill="white" cx="1159.3023255813953" />
<text x="1159.3023255813953" transform="translate(0,4.5)" font-size="9.0" y="-1102.0" text-anchor="middle" fill="black">24</text>
<circle r="9" stroke-width="2.3512492185517644" cy="-1100.0" stroke="black" fill="white" cx="1198.8372093023256" />
<text x="1198.8372093023256" transform="translate(0,4.5)" font-size="9.0" y="-1102.0" text-anchor="middle" fill="black">25</text>
<circle r="9" stroke-width="2.3512492185517644" cy="-1100.0" stroke="black" fill="white" cx="1238.3720930232557" />
<text x="1238.3720930232557" transform="translate(0,4.5)" font-size="9.0" y="-1102.0" text-anchor="middle" fill="black">26</text>
<circle r="9" stroke-width="2.3512492185517644" cy="-1100.0" stroke="black" fill="white" cx="1277.906976744186" />
<text x="1277.906976744186" transform="translate(0,4.5)" font-size="9.0" y="-1102.0" text-anchor="middle" fill="black">27</text>
<circle r="9" stroke-width="2.3512492185517644" cy="-1100.0" stroke="black" fill="white" cx="1317.4418604651162" />
<text x="1317.4418604651162" transform="translate(0,4.5)" font-size="9.0" y="-1102.0" text-anchor="middle" fill="black">28</text>
<circle r="9" stroke-width="2.3512492185517644" cy="-1100.0" stroke="black" fill="white" cx="1356.9767441860465" />
<text x="1356.9767441860465" transform="translate(0,4.5)" font-size="9.0" y="-1102.0" text-anchor="middle" fill="black">29</text>
<circle r="9" stroke-width="2.3512492185517644" cy="-1100.0" stroke="black" fill="white" cx="1396.5116279069766" />
<text x="1396.5116279069766" transform="translate(0,4.5)" font-size="9.0" y="-1102.0" text-anchor="middle" fill="black">30</text>
<circle r="9" stroke-width="2.3512492185517644" cy="-1100.0" stroke="black" fill="white" cx="1436.046511627907" />
<text x="1436.046511627907" transform="translate(0,4.5)" font-size="9.0" y="-1102.0" text-anchor="middle" fill="black">31</text>
<circle r="9" stroke-width="2.3512492185517644" cy="-1100.0" stroke="black" fill="white" cx="1475.581395348837" />
<text x="1475.581395348837" transform="translate(0,4.5)" font-size="9.0" y="-1102.0" text-anchor="middle" fill="black">32</text>
<circle r="9" stroke-width="2.3512492185517644" cy="-1100.0" stroke="black" fill="white" cx="1515.1162790697674" />
<text x="1515.1162790697674" transform="translate(0,4.5)" font-size="9.0" y="-1102.0" text-anchor="middle" fill="black">33</text>
<circle r="9" stroke-width="2.3512492185517644" cy="-1100.0" stroke="black" fill="white" cx="1554.6511627906978" />
<text x="1554.6511627906978" transform="translate(0,4.5)" font-size="9.0" y="-1102.0" text-anchor="middle" fill="black">34</text>
<circle r="9" stroke-width="2.3512492185517644" cy="-1100.0" stroke="black" fill="white" cx="1594.1860465116279" />
<text x="1594.1860465116279" transform="translate(0,4.5)" font-size="9.0" y="-1102.0" text-anchor="middle" fill="black">35</text>
<circle r="9" stroke-width="2.3512492185517644" cy="-1100.0" stroke="black" fill="white" cx="1633.7209302325582" />
<text x="1633.7209302325582" transform="translate(0,4.5)" font-size="9.0" y="-1102.0" text-anchor="middle" fill="black">36</text>
<circle r="9" stroke-width="2.3512492185517644" cy="-1100.0" stroke="black" fill="white" cx="1673.2558139534883" />
<text x="1673.2558139534883" transform="translate(0,4.5)" font-size="9.0" y="-1102.0" text-anchor="middle" fill="black">37</text>
<circle r="9" stroke-width="2.3512492185517644" cy="-1100.0" stroke="black" fill="white" cx="1712.7906976744187" />
<text x="1712.7906976744187" transform="translate(0,4.5)" font-size="9.0" y="-1102.0" text-anchor="middle" fill="black">38</text>
<circle r="9" stroke-width="2.3512492185517644" cy="-1100.0" stroke="black" fill="white" cx="1752.3255813953488" />
<text x="1752.3255813953488" transform="translate(0,4.5)" font-size="9.0" y="-1102.0" text-anchor="middle" fill="black">39</text>
<circle r="9" stroke-width="2.3512492185517644" cy="-1100.0" stroke="black" fill="white" cx="1791.860465116279" />
<text x="1791.860465116279" transform="translate(0,4.5)" font-size="9.0" y="-1102.0" text-anchor="middle" fill="black">40</text>
<circle r="9" stroke-width="2.3512492185517644" cy="-1100.0" stroke="black" fill="white" cx="1831.3953488372092" />
<text x="1831.3953488372092" transform="translate(0,4.5)" font-size="9.0" y="-1102.0" text-anchor="middle" fill="black">41</text>
<circle r="9" stroke-width="2.3512492185517644" cy="-1100.0" stroke="black" fill="white" cx="1870.9302325581396" />
<text x="1870.9302325581396" transform="translate(0,4.5)" font-size="9.0" y="-1102.0" text-anchor="middle" fill="black">42</text>
<circle r="9" stroke-width="2.3512492185517644" cy="-1100.0" stroke="black" fill="white" cx="1910.4651162790697" />
<text x="1910.4651162790697" transform="translate(0,4.5)" font-size="9.0" y="-1102.0" text-anchor="middle" fill="black">43</text>
<circle r="9" stroke-width="2.3512492185517644" cy="-1100.0" stroke="black" fill="white" cx="1950.0" />
<text x="1950.0" transform="translate(0,4.5)" font-size="9.0" y="-1102.0" text-anchor="middle" fill="black">44</text>
<path stroke="black" fill="none" stroke-width="2.3512492185517644" d="M1712.7906976744184,-1109.0 A256.9767441860465,256.9767441860465,0,0,0,1198.8372093023254,-1109.0" />
<path stroke="black" fill="none" stroke-width="2.3512492185517644" d="M961.6279069767443,-1091.0 A-375.58139534883713,-375.58139534883713,0,0,0,1712.7906976744184,-1091.0" />
<path stroke="black" fill="none" stroke-width="2.3512492185517644" d="M1949.9999999999998,-1109.0 A494.1860465116278,494.1860465116278,0,0,0,961.627906976744,-1109.0" />
<path stroke="black" fill="none" stroke-width="2.3512492185517644" d="M645.3488372093022,-1091.0 A-652.3255813953488,-652.3255813953488,0,0,0,1949.9999999999998,-1091.0" />
<path stroke="black" fill="none" stroke-width="2.3512492185517644" d="M1238.3720930232557,-1109.0 A296.5116279069767,296.5116279069767,0,0,0,645.3488372093025,-1109.0" />
<path stroke="black" fill="none" stroke-width="2.3512492185517644" d="M724.4186046511627,-1091.0 A-256.97674418604646,-256.97674418604646,0,0,0,1238.3720930232557,-1091.0" />
<path stroke="black" fill="none" stroke-width="2.3512492185517644" d="M1001.1627906976743,-1109.0 A138.37209302325573,138.37209302325573,0,0,0,724.4186046511628,-1109.0" />
<path stroke="black" fill="none" stroke-width="2.3512492185517644" d="M408.13953488372084,-1091.0 A-296.5116279069767,-296.5116279069767,0,0,0,1001.1627906976742,-1091.0" />
<path stroke="black" fill="none" stroke-width="2.3512492185517644" d="M526.7441860465116,-1109.0 A59.30232558139534,59.30232558139534,0,0,0,408.1395348837209,-1109.0" />
<path stroke="black" fill="none" stroke-width="2.3512492185517644" d="M250.0,-1091.0 A-138.3720930232558,-138.3720930232558,0,0,0,526.7441860465116,-1091.0" />
</svg>
